<?xml version="1.0" encoding="UTF-8" standalone="no"?>
<!-- Created with Inkscape (http://www.inkscape.org/) -->

<svg
   version="1.1"
   id="svg1"
   width="1128"
   height="1116"
   viewBox="0 0 1128 1116"
   xmlns:xlink="http://www.w3.org/1999/xlink"
   xmlns="http://www.w3.org/2000/svg"
   xmlns:svg="http://www.w3.org/2000/svg">
  <defs
     id="defs1">
    <filter
       style="color-interpolation-filters:sRGB"
       id="filter25"
       x="-0.11876125"
       y="-0.11875226"
       width="1.2684499"
       height="1.2684296">
      <feFlood
         result="flood"
         in="SourceGraphic"
         flood-opacity="0.498039"
         flood-color="rgb(0,0,0)"
         id="feFlood24" />
      <feGaussianBlur
         result="blur"
         in="SourceGraphic"
         stdDeviation="4.800000"
         id="feGaussianBlur24" />
      <feOffset
         result="offset"
         in="blur"
         dx="3.000000"
         dy="3.000000"
         id="feOffset24" />
      <feComposite
         result="comp1"
         operator="in"
         in="flood"
         in2="offset"
         id="feComposite24" />
      <feComposite
         result="comp2"
         operator="over"
         in="SourceGraphic"
         in2="comp1"
         id="feComposite25" />
    </filter>
    <linearGradient
       xlink:href="#linearGradient8"
       id="linearGradient9"
       x1="321.16473"
       y1="321.93118"
       x2="50.589203"
       y2="51.35569"
       gradientUnits="userSpaceOnUse"
       gradientTransform="matrix(3.3824707,0,0,3.3306661,8.5604791,11.432916)" />
    <linearGradient
       id="linearGradient8">
      <stop
         style="stop-color:#101419;stop-opacity:1;"
         offset="0"
         id="stop8" />
      <stop
         style="stop-color:#324353;stop-opacity:1;"
         offset="1"
         id="stop9" />
    </linearGradient>
  </defs>
  <g
     id="g1"
     style="display:none">
    <rect
       style="fill:#03d6e2;fill-opacity:1;stroke:#000000;stroke-opacity:1"
       id="rect1"
       width="1126.4421"
       height="1114.6947"
       x="2.6105263"
       y="-1117.3052"
       transform="scale(1,-1)" />
    <path
       style="display:inline;fill:#242f38;fill-opacity:1"
       d="M -7.5435533,575.29368 V 17.293679 H 556.45645 1120.4564 V 575.29368 1133.2936 H 556.45645 -7.5435533 Z M 614.45645,1080.2877 c 39.74637,-4.0104 73.69928,-11.4424 114.08334,-24.9717 11.32083,-3.7927 22.12083,-7.5555 24,-8.3619 1.87916,-0.8063 9.94166,-4.2609 17.91666,-7.6768 21.72336,-9.3046 30.01176,-13.4469 46.5,-23.2397 8.25,-4.8998 15.8951,-9.4341 16.98912,-10.0763 14.34145,-8.4184 40.7158,-27.25289 63.01088,-44.99739 11.99696,-9.5483 49.73601,-47.429 63.93021,-64.1702 25.1696,-29.686 48.28494,-64.1695 64.35184,-96 5.6936,-11.2798 7.829,-15.9218 15.1803,-33.00003 2.841,-6.6 5.5665,-12.9 6.0567,-14 7.8116,-17.52975 20.431,-58.93554 24.9914,-82 0.6525,-3.3 2.0421,-9.90781 3.088,-14.68402 1.0458,-4.7762 1.9211,-10.4012 1.9451,-12.5 0.024,-2.09879 0.4699,-5.84098 0.991,-8.31598 2.0871,-9.91197 4.9599,-51.19967 4.9626,-71.32242 0,-27.7816 -2.6649,-59.47635 -7.1718,-85.17758 -0.5787,-3.3 -1.6064,-9.375 -2.2838,-13.5 -1.8017,-10.97143 -8.6598,-38.94706 -12.8702,-52.5 -2.8371,-9.13253 -8.7381,-25.95668 -10.1716,-29 -0.7772,-1.65 -4.4041,-10.2 -8.0599,-19 -18.0564,-43.46526 -38.4597,-78.99508 -64.51444,-112.34417 -5.734,-7.33929 -11.5504,-14.82036 -12.9254,-16.6246 -10.8739,-14.26842 -54.8396,-58.67487 -70.50001,-71.20671 -22.16611,-17.73787 -62.09903,-44.10783 -89.99884,-59.4313 -8.2288,-4.51952 -44.0928,-20.893222 -45.7633,-20.893222 -0.51458,0 -2.35361,-0.65489 -4.08673,-1.45531 -3.71236,-1.71451 -7.28618,-2.98114 -26.65113,-9.44574 -17.81545,-5.94732 -28.15448,-9.13255 -29.58159,-9.11343 -0.59488,0.008 -3.96988,-0.82655 -7.5,-1.85449 -50.82423,-14.79949 -127.10321,-19.25303 -189.91841,-11.08837 -8.525,1.10807 -17.75,2.45926 -20.5,3.00264 -2.75,0.54337 -9.05,1.63882 -14,2.43432 -4.95,0.7955 -10.8,1.91056 -13,2.47791 -2.2,0.56735 -9.4,2.35417 -16,3.9707 -28.88354,7.07442 -53.22375,15.23028 -72.5,24.29313 -3.575,1.68081 -9.98821,4.55185 -14.25159,6.38008 -8.86228,3.800362 -23.37068,11.317382 -39.07332,20.244492 -5.95371,3.38474 -11.01942,6.15407 -11.25715,6.15407 -0.96926,0 -25.65273,16.29881 -35.79155,23.63362 -23.18615,16.77374 -40.57898,31.61962 -62.70067,53.51898 -22.17919,21.95628 -37.2327,38.46991 -45.42572,49.83181 -8.83589,12.25342 -16.77123,23.3574 -19.84238,27.76559 -9.05893,13.00281 -10.40844,15.04027 -13.08144,19.75 -1.56075,2.75 -4.31807,7.2723 -6.12736,10.04956 -4.27245,6.55816 -17.42881,32.11738 -23.12313,44.9219 -6.776652,15.23828 -19.074162,46.68873 -21.430652,54.8081 -1.15258,3.97124 -2.95281,10.14544 -4.00052,13.72044 -1.04771,3.575 -2.39336,8.525 -2.99033,11 -0.59697,2.475 -1.92131,7.65 -2.94297,11.5 -14.58901,54.97687 -18.81705,128.11345 -10.92613,189 1.88581,14.55091 5.95869,36.51741 9.6415,52 0.78496,3.3 2.05993,8.70517 2.83326,12.01149 1.59105,6.80241 13.12621,42.1226 16.48895,50.48851 1.21592,3.025 2.8508,7.3 3.63305,9.5 0.78226,2.2 1.82924,4.9 2.32662,6 0.49739,1.1 4.136472,9.425 8.086852,18.50003 3.95039,9.075 7.51646,16.95 7.9246,17.5 0.40815,0.55 3.11703,5.5 6.01974,11 2.90271,5.5 6.79251,12.3712 8.644,15.2694 1.85149,2.8982 3.36634,5.4507 3.36634,5.6722 0,1.6313 19.60888,30.6589 31.11358,46.0584 16.59957,22.2191 25.43721,32.2785 47.77643,54.3811 29.11093,28.8026 39.66642,37.7827 68.59792,58.36 9.40549,6.6896 32.81436,21.26849 43.51207,27.09909 1.925,1.0491 4.625,2.6917 6,3.6501 5.88607,4.1027 44.08459,22.0674 60.75,28.5707 29.84805,11.6475 39.46435,14.564 73.75,22.3676 27.31761,6.2177 58.28604,10.6299 84.5,12.0391 18.845,1.013 63.88164,0.4508 78,-0.9737 z m -84.5,-34.4744 c -18.05884,-1.2898 -42.85185,-4.4872 -50.4757,-6.5096 -1.93836,-0.5142 -8.25006,-1.834 -14.02599,-2.9329 -29.05936,-5.529 -76.76401,-21.9422 -109.99831,-37.846 -20.00969,-9.57539 -50.1576,-27.58599 -66,-39.42889 -1.375,-1.0279 -6.1,-4.4737 -10.5,-7.6574 -9.32966,-6.7506 -29.14225,-23.0392 -42,-34.5296 -17.77709,-15.8867 -26.04985,-24.9735 -54.72931,-60.1152 -0.44886,-0.55 -3.61854,-4.6092 -7.04373,-9.0204 -8.4729,-10.9119 -19.21844,-27.495 -27.52616,-42.4796 -1.37218,-2.475 -4.45371,-7.9719 -6.84784,-12.2153 -2.39413,-4.2435 -4.35296,-7.9127 -4.35296,-8.154 0,-0.2412 -1.60909,-3.2854 -3.57576,-6.7648 -3.10685,-5.4965 -6.54349,-13.09275 -14.41667,-31.86593 -1.03797,-2.475 -3.06298,-7.65 -4.50002,-11.5 -1.43703,-3.85 -3.02358,-7.9 -3.52565,-9 -3.1454,-6.89127 -11.42981,-36.44814 -15.83623,-56.5 -1.1482,-5.225 -3.00069,-13.63281 -4.11665,-18.68402 -1.11596,-5.0512 -2.02964,-10.4512 -2.03039,-12 -7.5e-4,-1.54879 -0.685422,-6.64098 -1.521492,-11.31598 -0.83606,-4.675 -2.23492,-19.75 -3.10857,-33.5 -1.34651,-21.19212 -1.40756,-28.65556 -0.40081,-49 0.65321,-13.2 1.57925,-27.15 2.05787,-31 0.47862,-3.85 1.38523,-11.275 2.01468,-16.5 1.138782,-9.45274 3.092502,-19.88409 7.117152,-38 6.11662,-27.53236 15.10124,-55.68488 25.37171,-79.5 1.42315,-3.3 2.85758,-6.9 3.18762,-8 0.67472,-2.24885 21.27361,-42.93412 23.9126,-47.23025 0.93575,-1.52336 3.5771,-5.69475 5.86965,-9.26975 2.29254,-3.575 6.15562,-9.64869 8.58461,-13.49708 17.59711,-27.88014 51.78541,-68.34881 75.91635,-89.86213 34.63936,-30.88183 75.37316,-59.41637 108.12827,-75.74524 23.40293,-11.66667 39.15121,-18.50397 52.87173,-22.95487 3.025,-0.9813 8.65,-2.88795 12.5,-4.237 16.68561,-5.84666 42.57992,-12.90363 61.5,-16.760562 9.57539,-1.95199 15.44058,-2.83705 39.5,-5.96057 20.38388,-2.64634 82.66397,-2.64744 104.5,-0.002 29.90824,3.62361 44.88993,6.22292 66.66274,11.565922 13.52015,3.31781 36.57099,10.4822 44.608,13.86453 1.77609,0.74745 5.92926,2.358 9.22926,3.57898 13.0927,4.84423 21.76464,8.62128 39.33061,17.13037 10.08183,4.88372 18.58498,8.87949 18.89589,8.87949 0.51191,0 15.57413,8.99964 24.2735,14.50335 10.87874,6.8825 24.66652,16.51185 33,23.0471 5.225,4.09753 12.875,10.03314 17,13.19024 27.32077,20.91015 70.52841,66.19195 86.12481,90.25931 1.9603,3.025 6.6226,10.225 10.3606,16 3.738,5.775 8.5329,13.04653 10.6555,16.15895 2.1225,3.11242 3.8591,5.99965 3.8591,6.41607 0,0.41641 1.9642,3.94488 4.3648,7.84105 4.78414,7.76438 21.92244,41.53624 25.92384,51.08393 4.6864,11.18232 16.374,45.42479 18.2605,53.5 0.7067,3.025 2.4041,10 3.772,15.5 5.2251,21.00849 10.6589,53.0026 12.9076,76 1.6395,16.76688 1.6357,62.00749 -0.01,80 -2.4103,26.40288 -11.184,76.40518 -15.2999,87.19586 -0.5883,1.54228 -1.4568,4.60414 -1.9299,6.80414 -1.3877,6.45239 -15.4982,46.861 -17.85,51.11779 -0.572,1.03522 -2.2647,4.72878 -3.7616,8.20792 -4.4143,10.25972 -19.43374,38.66438 -27.85244,52.67428 -31.66,52.6868 -62.5378,88.0415 -113.59042,130.0598 -18.51768,15.2407 -36.73505,27.8084 -60.43769,41.6944 -7.17465,4.2032 -53.81174,26.81639 -62,30.06219 -30.12691,11.9425 -30.97118,12.2259 -56,18.7951 -14.03312,3.6832 -24.06861,5.7263 -46,9.3651 -4.95,0.8213 -11.925,1.9836 -15.5,2.5828 -18.84404,3.1586 -67.99334,4.4247 -95.5,2.4602 z M 302.30289,744.7473 c 0.99508,-1.07449 3.24201,-7.57862 4.99317,-14.45362 1.75117,-6.875 4.10748,-15.65 5.23624,-19.5 1.12876,-3.85 2.904,-10.15 3.94499,-14 1.04098,-3.85 2.84702,-10.375 4.01341,-14.5 1.16639,-4.125 2.71266,-9.75 3.43614,-12.5 0.72349,-2.75 3.45084,-12.65 6.06077,-22 2.60994,-9.35 5.5403,-19.925 6.5119,-23.5 0.97161,-3.575 2.7444,-10.1 3.93954,-14.5 3.33169,-12.26587 5.92468,-22.2533 7.91859,-30.5 5.79105,-23.95146 8.4383,-33 9.65452,-33 2.17159,0 4.82325,4.70974 12.38635,22 3.96958,9.075 8.47104,18.975 10.00324,22 1.53219,3.025 5.18907,10.9 8.12639,17.5 2.93733,6.6 8.22274,17.85 11.74537,25 3.52263,7.15 8.40119,17.43777 10.84125,22.86172 2.44006,5.42394 5.28029,11.72394 6.31163,14 1.03134,2.27605 3.3152,7.51328 5.07524,11.63828 1.76005,4.125 6.33001,14.025 10.15547,22 3.82546,7.975 9.23805,19.675 12.02798,26 2.78993,6.325 5.93547,12.7375 6.99008,14.25 l 1.91748,2.75 h 40.80946 c 33.69055,0 41.01143,-0.24336 41.96724,-1.39504 1.10942,-1.33677 4.79432,-14.43206 7.6271,-27.10496 0.73765,-3.3 2.0106,-8.25 2.82878,-11 0.81818,-2.75 2.44107,-8.375 3.60643,-12.5 1.16536,-4.125 2.95457,-10.425 3.97603,-14 1.02146,-3.575 2.80031,-9.9875 3.95299,-14.25 4.78625,-17.6991 6.52475,-23.86283 10.08337,-35.75 2.05814,-6.875 6.12288,-21.95 9.03274,-33.5 5.66879,-22.50088 7.6714,-29.97757 10.98171,-41 1.15625,-3.85 2.95533,-9.925 3.99796,-13.5 1.04263,-3.575 2.81945,-9.65 3.94848,-13.5 3.44915,-11.76157 5.96449,-20.69969 7.66885,-27.25081 2.4722,-9.50253 2.27476,-9.61449 -15.58123,-8.83518 -15.37319,0.67094 -28.98671,3.13794 -39.5361,7.1646 -7.72185,2.9474 -21.01158,9.9045 -25.5,13.34911 -1.925,1.47732 -6.09228,4.37518 -9.26063,6.43967 -7.27088,4.73771 -12.44629,10.03625 -13.70327,14.02932 -0.53729,1.70681 -2.16137,6.47829 -3.60907,10.60329 -2.89069,8.23654 -5.60366,17.55719 -8.40094,28.86207 -1.86841,7.551 -3.70224,10.6107 -5.60497,9.35177 -1.20208,-0.79535 -5.74069,-10.15967 -14.4933,-29.90344 -3.21589,-7.25428 -7.83126,-17.15428 -10.25638,-22 -2.42511,-4.84572 -5.87719,-12.1854 -7.67128,-16.3104 -3.04335,-6.9973 -5.97556,-13.24036 -18.78702,-40 -2.76484,-5.775 -7.71621,-16.575 -11.00305,-24 -3.28684,-7.425 -7.77892,-17.325 -9.98239,-22 -4.66235,-9.89187 -13.42883,-29.29057 -16.49474,-36.5 -1.16948,-2.75 -2.79882,-5.5625 -3.62077,-6.25 -1.14251,-0.95563 -11.20564,-1.25 -42.73189,-1.25 -36.04198,0 -41.43415,0.19671 -42.79876,1.56132 -1.53368,1.53368 -2.12339,3.38649 -6.50511,20.43868 -1.20129,4.675 -2.64892,10.075 -3.21695,12 -0.56803,1.925 -1.92062,6.875 -3.00576,11 -1.08513,4.125 -2.57931,9.75 -3.3204,12.5 -0.74108,2.75 -2.75401,10.4 -4.47318,17 -6.96604,26.74309 -9.11233,34.43374 -18.00051,64.5 -3.40429,11.51574 -5.08894,17.71053 -9.04396,33.25624 -2.13301,8.38407 -4.85534,18.84376 -6.04964,23.24376 -1.19429,4.4 -2.51115,9.575 -2.92636,11.5 -0.41521,1.925 -1.43886,5.75 -2.27479,8.5 -0.83592,2.75 -1.96949,6.8 -2.51904,9 -0.54954,2.2 -2.14442,7.825 -3.54416,12.5 -1.39975,4.675 -3.26153,11.425 -4.13731,15 -1.78359,7.28083 -4.45327,17.04993 -7.51513,27.5 -1.92049,6.55459 -3.00796,10.34017 -8.04346,28 -1.09779,3.85 -4.00058,14.65 -6.45065,24 -2.45007,9.35 -5.08715,19.36556 -5.86018,22.25679 -1.03773,3.88126 -1.11629,5.63879 -0.30023,6.71664 1.52777,2.01787 8.3914,2.28481 53.87389,2.09532 37.06617,-0.15442 38.84805,-0.2473 40.57783,-2.11513 z m 413.86275,-0.0706 c 0.70995,-0.97091 1.28247,-2.24178 1.27229,-2.82416 -0.0102,-0.58238 1.60547,-7.35887 3.59037,-15.05887 3.79552,-14.72398 6.42429,-24.25429 11.03328,-40 0.80496,-2.75 3.08456,-11.075 5.06577,-18.5 1.98121,-7.425 4.9312,-18.45 6.55552,-24.5 1.62432,-6.05 3.83903,-14.375 4.92156,-18.5 3.75461,-14.30691 5.68385,-21.51782 6.68864,-25 0.55546,-1.925 1.51438,-5.3 2.13093,-7.5 0.61656,-2.2 2.18354,-7.6 3.48218,-12 1.29864,-4.4 3.79626,-13.4 5.55027,-20 1.75401,-6.6 4.30186,-15.825 5.6619,-20.5 3.99815,-13.74329 7.84083,-28.28639 14.26827,-54 4.76807,-19.07516 5.65147,-21.59586 7.91139,-22.57438 0.91214,-0.39495 24.76714,-0.82705 53.0111,-0.96023 42.41427,-0.19999 51.59604,-0.48551 52.75091,-1.64038 0.76903,-0.76904 3.38125,-8.58177 5.80492,-17.36163 2.42368,-8.77986 5.37847,-19.11338 6.56621,-22.96338 9.99321,-32.39227 10.27401,-33.49541 8.93691,-35.10654 -1.774,-2.13752 -378.07637,-2.08584 -380.21443,0.0522 -0.79512,0.79512 -2.22508,4.50762 -3.1777,8.25 -2.07407,8.14809 -5.00734,18.60064 -7.52201,26.80432 -1.01155,3.3 -2.82123,9.6 -4.0215,14 -1.20028,4.4 -3.03589,10.88828 -4.07915,14.41841 -1.04325,3.53012 -1.89682,7.09057 -1.89682,7.91211 0,0.82153 -0.66567,3.78325 -1.47927,6.58159 -10.03384,34.51102 -12.92802,46.11987 -11.90907,47.76855 0.95376,1.54322 3.52018,-0.60921 7.78791,-6.53161 15.15947,-21.03707 40.60934,-36.623 66.60043,-40.78721 6.34688,-1.01687 21.09304,-1.36184 58.21431,-1.36184 57.08419,0 54.06941,-0.47639 52.12095,8.23605 -1.91038,8.54218 -5.65732,22.7506 -9.29953,35.26395 -1.04057,3.575 -4.8642,17.3 -8.49698,30.5 -7.23292,26.28147 -8.64341,31.28939 -11.12525,39.5 -0.91437,3.025 -2.24717,7.975 -2.96178,11 -0.7146,3.025 -2.25444,9.1 -3.42186,13.5 -1.16741,4.4 -2.57453,9.8 -3.12692,12 -2.51454,10.01464 -9.17915,34.57562 -10.85398,40 -1.93541,6.26832 -4.72185,15.80901 -7.95859,27.25 -1.05029,3.7125 -3.5064,13.05 -5.45803,20.75 -7.17921,28.32513 -10.07117,39.19606 -11.06398,41.58979 -1.44632,3.48715 1.45937,3.87286 31.51559,4.18344 16.17883,0.16717 37.49769,0.20746 47.37524,0.0895 15.85749,-0.18934 18.11025,-0.42102 19.25,-1.97972 z"
       id="path1" />
    <rect
       style="fill:#242f38;fill-opacity:1;stroke:none;stroke-opacity:1"
       id="rect2"
       width="1129.7036"
       height="35.072495"
       x="1.8459208"
       y="3.6918416" />
    <rect
       style="display:inline;fill:#242f38;fill-opacity:1;stroke:none;stroke-opacity:1"
       id="rect3"
       width="42.456181"
       height="1124.1658"
       x="1107.5525"
       y="1.8459208" />
    <rect
       style="fill:#242f38;fill-opacity:1;stroke:none;stroke-opacity:1"
       id="rect4"
       width="1188.7731"
       height="62.761311"
       x="-18.459209"
       y="-18.459209" />
  </g>
  <ellipse
     style="display:inline;fill:#324353;fill-opacity:1;stroke-width:1.26491"
     id="path2"
     cx="563.92877"
     cy="558.39099"
     rx="519.51666"
     ry="528.85632" />
  <rect
     style="display:none;fill:url(#linearGradient9);fill-opacity:1;stroke:none;stroke-width:3.35646"
     id="rect8"
     width="1127.813"
     height="1115.646"
     x="0.78245854"
     y="1.221056"
     ry="0" />
  <path
     id="path1-8"
     style="fill:#03d1de;fill-opacity:1;filter:url(#filter25)"
     d="m 83.986328,115.40625 c -2.252255,-0.12534 -4.496508,-0.0845 -6.705078,0.12695 -6.94677,0.66506 -11.233331,1.88421 -17.505859,4.97657 -25.926564,12.78179 -34.915332,45.36229 -19.177735,69.51171 8.356143,12.82254 21.691432,20.841 36.832032,22.14649 24.816482,2.13978 47.408142,-15.42685 51.832032,-40.30274 0.74518,-4.18997 0.73547,-11.92894 -0.0195,-16.16015 -1.69744,-9.51152 -6.5365,-18.96161 -13.25196,-25.87891 -2.95099,-3.0397 -8.16677,-6.87091 -12.19531,-8.95703 -6.216557,-3.21916 -13.051827,-5.08688 -19.808592,-5.46289 z m -4.308594,3.20313 c 8.119878,-0.29878 16.340308,1.56591 23.707036,5.62695 9.10981,5.02196 16.95518,14.13041 20.49023,23.78906 4.9972,13.65361 3.32999,28.19641 -4.6582,40.63867 -6.32555,9.85255 -17.58805,17.41154 -29.265628,19.64063 C 76.080971,210.95232 62.601599,207.27942 51.630859,197.86328 36.213533,184.63067 31.667077,162.58236 40.5625,144.18555 c 3.60128,-7.44789 9.024726,-13.62289 16.011719,-18.22657 6.963637,-4.5883 14.983637,-7.05086 23.103515,-7.3496 z m -14.708984,28.27734 -4.03125,0.0898 -4.029297,0.0879 -4.556641,16.64063 c -2.506208,9.152 -4.561206,16.7469 -4.566406,16.8789 v 0.002 0.002 0.002 0.002 h 0.002 c 0.08614,0.12776 2.055453,0.23242 4.455079,0.23242 h 4.46875 l 0.363281,-1.35938 c 0.200335,-0.748 1.285661,-4.7387 2.412109,-8.86718 1.126447,-4.12848 2.048828,-7.75542 2.048828,-8.06055 0,-1.39426 0.643474,-0.62757 2.001953,2.38281 0.8103,1.79561 2.76631,6.07386 4.345703,9.50586 l 2.871094,6.23828 3.951172,0.0859 3.949219,0.084 1.714844,-6.32421 c 2.170589,-8.01267 4.497314,-16.43281 4.701171,-17.00782 0.127308,-0.35907 -0.285471,-0.41307 -2.1875,-0.29101 -1.859662,0.11935 -2.755749,0.36948 -4.341796,1.21484 -2.59856,1.38501 -3.277221,2.244 -4.009766,5.06836 -0.314458,1.2124 -0.678734,2.10944 -0.832031,2.08203 l -0.002,-0.002 h -0.002 -0.002 -0.002 -0.002 v -0.002 c -0.0028,-0.002 -0.0071,-0.004 -0.0098,-0.006 l -0.002,-0.002 c -0.237487,-0.24903 -6.686851,-13.98632 -8.050781,-17.14843 z m 32.140625,0.0957 c -9.76533,-0.0455 -17.826863,-0.011 -17.914063,0.0762 -0.168547,0.16855 -3.236393,11.00802 -3.251953,11.49024 v 0.002 0.002 l 0.002,0.002 v 0.002 0.002 0.002 0.002 l 0.002,0.002 v 0.002 l 0.002,0.002 0.002,0.002 v 0.002 l 0.002,0.002 h 0.002 0.002 l 0.002,0.002 c 0.102937,0.0204 0.663907,-0.47311 1.335938,-1.1875 2.542285,-2.70252 3.362714,-2.94763 10.269531,-3.06836 5.71694,-0.0999 6.020045,-0.0764 5.859375,0.47852 -0.19105,0.6599 -2.140953,7.74464 -5.001953,18.16797 -1.05993,3.86159 -1.927734,7.21203 -1.927734,7.44726 0,0.34091 0.915954,0.41065 4.513671,0.33985 l 4.513672,-0.0898 3.486328,-12.77539 c 1.917523,-7.02642 3.486323,-12.96218 3.486323,-13.1914 0,-0.32157 1.18443,-0.43611 5.18359,-0.50391 l 5.1836,-0.0879 1.00195,-3.52149 1,-3.51953 z"
     transform="matrix(11.391911,0,0,11.282393,-363.40865,-1289.4299)" />
</svg>
